<svg id="Capa_1" enable-background="new 0 0 512 512" height="512" viewBox="0 0 512 512" width="512" xmlns="http://www.w3.org/2000/svg"><g><path d="m72.874 90.798c-18.687-69.741-14.116-52.669-14.845-55.404l-6.422-23.964c-1.831-6.836-7.817-11.43-14.895-11.43-7.015 0-13.049 4.534-14.896 11.43-2.994 11.173-19.74 73.671-21.267 79.367-.374 1.399-.549 2.816-.549 4.176v406.548c0 5.778 4.701 10.479 10.479 10.479h52.465c5.778 0 10.479-4.701 10.479-10.479v-340.887c0-4.142-3.358-7.5-7.5-7.5s-7.5 3.358-7.5 7.5v336.366h-43.423v-390.173l1.865 1.077c2.32 1.34 5.18 1.34 7.5 0l12.347-7.128 12.347 7.128c2.32 1.34 5.18 1.34 7.5 0l1.865-1.077v18.808c0 4.142 3.358 7.5 7.5 7.5s7.5-3.358 7.5-7.5v-30.662c0-1.356-.175-2.776-.55-4.175zm-36.569-75.486c.042-.155.085-.229.096-.242.114-.094.509-.094.62-.002.012.014.056.088.098.244l4.604 17.183c-3.31.668-6.713.667-10.021 0zm16.504 77.436-12.347-7.128c-2.32-1.34-5.18-1.34-7.5 0l-12.347 7.128-4.381-2.529 11.579-43.214c5.713 1.294 11.78 1.363 17.797 0l11.579 43.214z"/><path d="m25 322.129v122.612c0 4.142 3.358 7.5 7.5 7.5s7.5-3.358 7.5-7.5v-122.612c0-4.142-3.358-7.5-7.5-7.5s-7.5 3.358-7.5 7.5z"/><path d="m511.45 90.797-14.846-55.404c-.001-.003-.002-.006-.003-.01l-6.418-23.954c-1.831-6.836-7.817-11.429-14.895-11.429s-13.063 4.593-14.896 11.43l-6.418 23.954c-.001.003-.002.006-.003.01l-14.846 55.404c-.395 1.472-.55 2.928-.55 4.175v406.548c0 5.778 4.701 10.479 10.479 10.479h52.465c5.778 0 10.479-4.701 10.479-10.479v-406.548c.002-1.27-.15-2.69-.548-4.176zm-45.061-43.793c5.702 1.291 11.77 1.365 17.798 0l11.579 43.214-4.382 2.53-12.347-7.128c-2.32-1.34-5.18-1.34-7.5 0l-12.347 7.128-4.382-2.53zm8.492-31.692c.042-.155.086-.229.097-.242.111-.094.508-.095.619-.002.013.014.057.089.099.243l4.604 17.183c-3.309.667-6.713.667-10.021 0zm22.119 481.688h-43.424v-390.173l1.865 1.077c2.32 1.34 5.18 1.34 7.5 0l12.347-7.128 12.347 7.128c2.32 1.34 5.18 1.34 7.5 0l1.865-1.077z"/><path d="m479.142 314.629c-4.143 0-7.5 3.358-7.5 7.5v122.612c0 4.142 3.357 7.5 7.5 7.5s7.5-3.358 7.5-7.5v-122.612c0-4.142-3.358-7.5-7.5-7.5z"/><path d="m424.021 200.92c-1.917-7.156-17.988-67.135-21.267-79.368-1.831-6.836-7.816-11.43-14.894-11.43-7 0-13.044 4.518-14.896 11.43-2.994 11.173-19.74 73.672-21.267 79.368-.401 1.497-.55 2.93-.55 4.175v296.425c0 5.778 4.701 10.479 10.479 10.479h52.465c5.778 0 10.479-4.701 10.479-10.479v-296.425c.001-1.254-.146-2.672-.549-4.175zm-45.06-43.793c5.725 1.297 11.792 1.36 17.798 0l11.579 43.214-4.381 2.529-12.347-7.129c-2.32-1.34-5.18-1.34-7.5 0l-12.348 7.129-4.381-2.529zm8.492-31.692c.042-.155.086-.229.096-.241.114-.094.508-.095.62-.002.012.014.056.088.098.244l4.604 17.183c-3.31.666-6.712.668-10.021 0zm22.118 371.565h-43.423v-280.05l1.864 1.076c2.32 1.34 5.18 1.34 7.5 0l12.348-7.129 12.347 7.129c2.32 1.34 5.18 1.34 7.5 0l1.864-1.076z"/><path d="m388.648 314.629c-4.143 0-7.5 3.358-7.5 7.5v122.612c0 4.142 3.357 7.5 7.5 7.5s7.5-3.358 7.5-7.5v-122.612c0-4.142-3.357-7.5-7.5-7.5z"/><path d="m248.448 124.473c-18.687-69.741-14.116-52.669-14.845-55.405l-6.421-23.963c-1.832-6.836-7.818-11.43-14.896-11.43s-13.063 4.594-14.895 11.43c-3.057 11.407-19.699 73.516-21.267 79.368-.375 1.401-.549 2.818-.549 4.175v308.47c0 4.142 3.358 7.5 7.5 7.5s7.5-3.358 7.5-7.5v-296.617l1.865 1.077c2.32 1.34 5.18 1.34 7.5 0l12.347-7.128 12.347 7.128c2.32 1.34 5.18 1.34 7.5 0l1.865-1.077v356.499h-43.423v-24.882c0-4.142-3.358-7.5-7.5-7.5s-7.5 3.358-7.5 7.5v29.403c0 5.778 4.701 10.479 10.479 10.479h52.464c5.778 0 10.479-4.701 10.479-10.479v-372.874c0-.988-.099-2.493-.55-4.174zm-36.569-75.486c.042-.155.085-.229.096-.241.114-.094.508-.094.62-.002.012.014.056.088.098.244l4.604 17.183c-3.31.667-6.713.667-10.022 0zm16.504 77.436-12.347-7.128c-2.32-1.34-5.18-1.34-7.5 0l-12.347 7.128-4.381-2.529 11.579-43.214c5.702 1.291 11.769 1.365 17.797 0l11.579 43.215z"/><path d="m219.786 444.741v-122.612c0-4.142-3.358-7.5-7.5-7.5s-7.5 3.358-7.5 7.5v122.612c0 4.142 3.358 7.5 7.5 7.5s7.5-3.358 7.5-7.5z"/><path d="m336.234 100.798c-18.686-69.741-14.115-52.669-14.845-55.404l-6.421-23.963c-1.831-6.837-7.817-11.431-14.894-11.431-7 0-13.044 4.518-14.896 11.43l-6.418 23.954c-.001.003-.002.006-.003.01l-14.846 55.404c-.396 1.477-.55 2.921-.55 4.175v396.548c0 5.778 4.701 10.479 10.479 10.479h52.465c5.778 0 10.479-4.701 10.479-10.479v-292.474c0-4.142-3.357-7.5-7.5-7.5s-7.5 3.358-7.5 7.5v287.953h-43.424v-380.173l1.864 1.076c2.32 1.34 5.18 1.34 7.5 0l12.348-7.128 12.347 7.128c2.32 1.34 5.18 1.34 7.5 0l1.865-1.077v57.22c0 4.142 3.357 7.5 7.5 7.5s7.5-3.358 7.5-7.5v-69.074c.001-1.25-.152-2.689-.55-4.174zm-36.568-75.486c.042-.155.086-.229.097-.242.112-.094.507-.094.618-.002.013.014.057.089.099.244l4.604 17.183c-3.312.667-6.714.667-10.022 0zm16.504 77.436-12.347-7.128c-2.32-1.34-5.18-1.34-7.5 0l-12.348 7.128-4.381-2.529 11.579-43.214c5.713 1.294 11.781 1.363 17.798 0l11.579 43.214z"/><path d="m292.573 322.129v122.612c0 4.142 3.357 7.5 7.5 7.5s7.5-3.358 7.5-7.5v-122.612c0-4.142-3.357-7.5-7.5-7.5s-7.5 3.358-7.5 7.5z"/><path d="m160.661 178.546c-1.523-5.683-18.278-68.213-21.267-79.368-1.832-6.836-7.817-11.43-14.895-11.43-6.999 0-13.044 4.518-14.896 11.43-2.994 11.173-19.74 73.672-21.267 79.368-.374 1.396-.549 2.813-.549 4.175v318.799c0 5.778 4.701 10.479 10.479 10.479h52.465c5.778 0 10.479-4.701 10.479-10.479v-318.799c0-1.366-.176-2.783-.549-4.175zm-45.06-43.793c5.713 1.294 11.78 1.362 17.797 0l11.579 43.215-4.381 2.529-12.347-7.129c-2.32-1.34-5.18-1.34-7.5 0l-12.347 7.129-4.381-2.529zm8.491-31.692c.041-.155.085-.229.096-.241.114-.094.509-.094.62-.002.012.014.057.089.098.244l4.604 17.183c-3.31.668-6.713.667-10.021 0zm22.118 393.939h-43.423v-302.425l1.865 1.077c2.32 1.34 5.18 1.34 7.5 0l12.347-7.129 12.347 7.129c2.32 1.34 5.18 1.34 7.5 0l1.865-1.077v302.425z"/><path d="m128.641 314.629c-4.142 0-7.5 3.358-7.5 7.5v122.612c0 4.142 3.358 7.5 7.5 7.5s7.5-3.358 7.5-7.5v-122.612c0-4.142-3.358-7.5-7.5-7.5z"/></g></svg>