<?xml version="1.0"?>
<svg xmlns="http://www.w3.org/2000/svg" xmlns:xlink="http://www.w3.org/1999/xlink" xmlns:svgjs="http://svgjs.com/svgjs" version="1.1" width="512" height="512" x="0" y="0" viewBox="0 0 512 512" style="enable-background:new 0 0 512 512" xml:space="preserve" class=""><g><g xmlns="http://www.w3.org/2000/svg"><g><path d="m504.498 193.273c4.143 0 7.5-3.358 7.5-7.5v-105.579c0-15.006-11.978-27.64-26.702-28.165-4.835-.17-9.533.887-13.708 3.047v-.132c0-15.266-11.725-27.642-26.693-28.175-4.842-.169-9.533.886-13.706 3.046v-1.621c0-15.265-11.729-27.642-26.703-28.175-7.604-.276-14.779 2.481-20.237 7.749-5.462 5.27-8.47 12.35-8.47 19.936v2.14c-3.517-1.833-7.481-2.925-11.703-3.076-7.601-.27-14.779 2.481-20.237 7.749-5.462 5.27-8.47 12.35-8.47 19.936v96.606c-3.807-1.972-8.126-3.086-12.7-3.086-7.393 0-14.349 2.876-19.601 8.114-5.223 5.238-8.099 12.194-8.099 19.585v101.019c0 8.13 2.686 16.185 7.56 22.68l18.181 24.242c2.938 3.916 4.558 8.777 4.558 13.688v28.379h-4.619c-4.143 0-7.5 3.358-7.5 7.5v72.401c0 4.142 3.357 7.5 7.5 7.5s7.5-3.358 7.5-7.5v-16.41h158.749v67.829h-158.748v-16.42c0-4.142-3.357-7.5-7.5-7.5s-7.5 3.358-7.5 7.5v23.92c0 4.142 3.357 7.5 7.5 7.5h173.749c4.143 0 7.5-3.358 7.5-7.5v-167.358c0-5.988.735-11.972 2.185-17.779l5.281-21.104c1.748-6.998 2.634-14.204 2.634-21.417v-56.069c0-4.142-3.357-7.5-7.5-7.5s-7.5 3.358-7.5 7.5v56.069c0 5.989-.735 11.972-2.186 17.779l-5.281 21.105c-1.747 6.999-2.633 14.205-2.633 21.416v28.538h-146.63v-28.379c0-8.137-2.686-16.196-7.56-22.69l-18.181-24.241c-2.939-3.917-4.559-8.775-4.559-13.678v-101.019c0-3.394 1.321-6.588 3.706-8.979 2.406-2.399 5.6-3.72 8.994-3.72 7.003 0 12.7 5.697 12.7 12.7 0 .026.004.051.004.077v46.149c0 5.775 2.835 11.185 7.582 14.472l43.902 30.394c8.877 6.145 14.176 16.259 14.176 27.055v29.337c0 4.142 3.357 7.5 7.5 7.5s7.5-3.358 7.5-7.5v-29.338c0-15.717-7.715-30.441-20.637-39.388l-43.903-30.394c-.701-.486-1.12-1.285-1.12-2.139l-.004-167.445c0-3.478 1.38-6.725 3.886-9.143 2.502-2.415 5.785-3.665 9.287-3.553 6.747.241 12.237 6.155 12.237 13.185v130.832c0 4.142 3.357 7.5 7.5 7.5s7.5-3.358 7.5-7.5v-158.071c0-3.478 1.38-6.725 3.886-9.142 2.502-2.415 5.788-3.665 9.287-3.553 6.747.241 12.237 6.155 12.237 13.185l-.004 157.582c0 4.142 3.357 7.5 7.5 7.5s7.5-3.358 7.5-7.5v-131.245c0-.026.004-.051.004-.077 0-3.48 1.379-6.728 3.884-9.145 2.502-2.414 5.804-3.67 9.289-3.55 6.741.24 12.226 6.155 12.226 13.185l.004 130.832c0 4.142 3.357 7.5 7.5 7.5s7.5-3.358 7.5-7.5v-106.141c.021-3.45 1.394-6.667 3.879-9.065 2.503-2.415 5.8-3.667 9.291-3.551 6.747.241 12.236 6.151 12.236 13.175v105.579c0 4.142 3.357 7.5 7.5 7.5zm-171.729 187.408h154.128v33.486h-158.747v-33.487h4.59c.01 0 .019.001.029.001z" fill="#ffffff" data-original="#000000" class=""/><path d="m192.835 160.815c8.788-12.432 13.025-27.683 11.932-42.943-1.106-15.426-7.701-30.079-18.568-41.26-10.885-11.2-25.361-18.201-40.758-19.713-35.523-3.505-67.177 21.359-72.095 56.596-.423 3.029-.638 6.123-.638 9.193 0 13.048 10.615 23.662 23.663 23.662 13.047 0 23.662-10.615 23.662-23.662 0-.889.062-1.779.184-2.651 1.395-9.996 10.446-17.035 20.594-16.042 8.908.876 16.111 8.297 16.754 17.263.641 8.936-4.873 16.938-13.408 19.46-17.343 5.122-28.994 20.576-28.994 38.457v2.076c0 13.047 10.615 23.662 23.663 23.662 11.93 0 21.826-8.874 23.433-20.393 12.238-4.654 22.968-12.942 30.576-23.705zm-39.52 10.903c-3.492 1.029-5.838 4.038-5.838 7.519l.009 2.014c0 4.776-3.886 8.663-8.662 8.663s-8.663-3.886-8.663-8.663v-2.076c0-11.176 7.331-20.849 18.243-24.072 15.351-4.535 25.27-18.894 24.12-34.918-1.158-16.159-14.162-29.536-30.246-31.117-1.148-.113-2.288-.168-3.417-.168-16.765 0-31.148 12.205-33.501 29.059-.218 1.555-.328 3.145-.328 4.729 0 4.776-3.886 8.663-8.662 8.663s-8.663-3.886-8.663-8.663c0-2.379.166-4.774.493-7.12 3.803-27.237 28.311-46.445 55.77-43.742 11.877 1.166 23.055 6.579 31.472 15.24 8.408 8.65 13.509 19.972 14.363 31.878.846 11.809-2.428 23.605-9.219 33.212-6.627 9.378-16.315 16.326-27.271 19.562z" fill="#ffffff" data-original="#000000" class=""/><path d="m138.824 222.238c-13.048 0-23.663 10.615-23.663 23.662s10.615 23.662 23.663 23.662c13.047 0 23.662-10.615 23.662-23.662s-10.615-23.662-23.662-23.662zm0 32.325c-4.776 0-8.663-3.886-8.663-8.663s3.887-8.663 8.663-8.663 8.662 3.886 8.662 8.663-3.885 8.663-8.662 8.663z" fill="#ffffff" data-original="#000000" class=""/><path d="m249.94 24.244h-222.238c-15.274 0-27.7 12.431-27.7 27.71v222.228c0 15.279 12.426 27.71 27.7 27.71h129.168l62.826 39.26c1.214.758 2.593 1.14 3.975 1.14 1.251 0 2.503-.312 3.636-.94 2.385-1.322 3.864-3.833 3.864-6.56v-32.9h18.77c15.273 0 27.699-12.431 27.699-27.71v-143.439c0-4.142-3.357-7.5-7.5-7.5s-7.5 3.358-7.5 7.5v143.439c0 7.008-5.697 12.71-12.699 12.71h-26.27c-4.143 0-7.5 3.358-7.5 7.5v26.869l-53.175-33.229c-1.192-.745-2.569-1.14-3.975-1.14h-131.319c-7.003 0-12.7-5.702-12.7-12.71v-222.228c0-7.008 5.697-12.71 12.7-12.71h222.238c7.002 0 12.699 5.702 12.699 12.71v43.79c0 4.142 3.357 7.5 7.5 7.5s7.5-3.358 7.5-7.5v-43.79c0-15.279-12.425-27.71-27.699-27.71z" fill="#ffffff" data-original="#000000" class=""/></g></g></g></svg>
