<?xml version="1.0"?>
<svg xmlns="http://www.w3.org/2000/svg" xmlns:xlink="http://www.w3.org/1999/xlink" xmlns:svgjs="http://svgjs.com/svgjs" version="1.1" width="512" height="512" x="0" y="0" viewBox="0 0 128 128" style="enable-background:new 0 0 512 512" xml:space="preserve" class=""><g><path xmlns="http://www.w3.org/2000/svg" d="m119.4 62.66-9.963-24.545a20.761 20.761 0 0 0 -6.767-8.8l-1.332-3.139a15.673 15.673 0 0 0 -30.195 5.9v5.517a20.657 20.657 0 0 0 -1.764 8.35v29.916h-10.756v-29.923a20.657 20.657 0 0 0 -1.764-8.35v-5.517a15.673 15.673 0 0 0 -30.186-5.916l-1.341 3.16a20.767 20.767 0 0 0 -6.767 8.8l-9.965 24.547a28.988 28.988 0 1 0 49.265 26.5h12.268a28.993 28.993 0 1 0 49.267-26.5zm-12.745-23.417 7.815 19.257a28.966 28.966 0 0 0 -42.093 11.278v-23.842a17.8 17.8 0 0 1 28.237-14.408l.027.02a17.765 17.765 0 0 1 6.014 7.695zm-32.514-7.174a12.667 12.667 0 0 1 24.194-5.256 20.776 20.776 0 0 0 -24.194 5.893zm-32.954-12.669a12.687 12.687 0 0 1 12.672 12.669v.637a20.774 20.774 0 0 0 -24.195-5.892 12.613 12.613 0 0 1 11.523-7.414zm-19.842 19.844a17.756 17.756 0 0 1 6.01-7.693c.016-.01.031-.023.047-.034a17.8 17.8 0 0 1 28.221 14.419v23.842a28.966 28.966 0 0 0 -42.093-11.278zm8.279 69.36a26 26 0 1 1 26-26 26.029 26.029 0 0 1 -26 25.996zm29-22.446v-7.3h10.753v3.742a28.957 28.957 0 0 0 .226 3.554zm39.752 22.442a26.038 26.038 0 0 1 -25.644-21.733v-8.526a26 26 0 1 1 25.644 30.259z" fill="#ffffff" data-original="#000000" class=""/><path xmlns="http://www.w3.org/2000/svg" d="m98.376 62.392a20.212 20.212 0 1 0 20.212 20.208 20.235 20.235 0 0 0 -20.212-20.208zm0 37.424a17.212 17.212 0 1 1 17.212-17.216 17.232 17.232 0 0 1 -17.212 17.216z" fill="#ffffff" data-original="#000000" class=""/><path xmlns="http://www.w3.org/2000/svg" d="m29.624 62.392a20.212 20.212 0 1 0 20.212 20.208 20.235 20.235 0 0 0 -20.212-20.208zm0 37.424a17.212 17.212 0 1 1 17.212-17.216 17.232 17.232 0 0 1 -17.212 17.216z" fill="#ffffff" data-original="#000000" class=""/></g></svg>
