<svg height="512" viewBox="0 0 64 64" width="512" xmlns="http://www.w3.org/2000/svg"><path d="m7.68 56.37a2 2 0 0 0 1.42-.59l12.1-12.1 16.7.57a1.48 1.48 0 0 1 1.05.48 1.55 1.55 0 0 1 .42 1.1 1.41 1.41 0 0 1 -.14.57v.08a1.5 1.5 0 0 1 -1.4.83l-8.59-.31a2 2 0 1 0 -.14 4l8.53.29h.21a5.53 5.53 0 0 0 4.7-2.64l9.94-8.8a1.08 1.08 0 0 1 .67-.25 1.22 1.22 0 0 1 1.17 1.25 1.28 1.28 0 0 1 -.09.44l-.25.33-13.78 13.58-19.35-.66a2 2 0 0 0 -1.49.58l-5.46 5.47a2 2 0 1 0 2.83 2.82l4.85-4.84 19.34.65a2.06 2.06 0 0 0 1.47-.57l14.47-14.24.15-.15a6.07 6.07 0 0 0 .72-1 5.06 5.06 0 0 0 .58-2.26 5.14 5.14 0 0 0 -8.31-4.3l-.13.1-7.2 6.38a5.94 5.94 0 0 0 -.78-1.18 5.5 5.5 0 0 0 -3.89-1.75l-17.54-.6a2.07 2.07 0 0 0 -1.49.59l-12.7 12.76a2 2 0 0 0 1.41 3.42z"/><path d="m36.65 25.3a2 2 0 0 0 1.42-3.41l-3.24-3.24 3.24-3.24a2 2 0 0 0 -2.83-2.82l-3.24 3.23-3.24-3.23a2 2 0 1 0 -2.83 2.82l3.24 3.24-3.24 3.24a2 2 0 0 0 1.42 3.41 2 2 0 0 0 1.41-.58l3.24-3.24 3.24 3.24a2 2 0 0 0 1.41.58z"/><circle cx="12" cy="2" r="2"/><circle cx="17" cy="2" r="2"/><circle cx="22" cy="2" r="2"/><circle cx="27" cy="2" r="2"/><circle cx="27" cy="7" r="2"/><circle cx="32" cy="7" r="2"/><circle cx="37" cy="7" r="2"/><circle cx="42" cy="7" r="2"/><circle cx="47" cy="7" r="2"/><circle cx="52" cy="7" r="2"/><circle cx="52" cy="12" r="2"/><circle cx="52" cy="18" r="2"/><circle cx="52" cy="23" r="2"/><circle cx="52" cy="28" r="2"/><circle cx="27" cy="33" r="2"/><circle cx="22" cy="33" r="2"/><circle cx="17" cy="33" r="2"/><circle cx="12" cy="33" r="2"/><circle cx="12" cy="28" r="2"/><circle cx="12" cy="23" r="2"/><circle cx="12" cy="18" r="2"/><circle cx="12" cy="12" r="2"/><circle cx="12" cy="7" r="2"/><circle cx="32" cy="33" r="2"/><circle cx="37" cy="33" r="2"/><circle cx="42" cy="33" r="2"/><circle cx="47" cy="33" r="2"/><circle cx="52" cy="33" r="2"/></svg>