<svg xmlns="http://www.w3.org/2000/svg" xmlns:xlink="http://www.w3.org/1999/xlink" xmlns:svgjs="http://svgjs.com/svgjs" version="1.1" width="25" height="25" x="0" y="0" viewBox="0 0 64 64" style="enable-background:new 0 0 512 512" xml:space="preserve" class=""><g><path xmlns="http://www.w3.org/2000/svg" d="M59,37H57.5463a18.948,18.948,0,0,0-3.0154-6.9067,9.2,9.2,0,0,0,.8382-.7281A8.9822,8.9822,0,0,0,58,23a1,1,0,0,0-1-1H44.9808l4.0979-7.0978a1,1,0,0,0,1.366-.366l2-3.4641a1,1,0,0,0-.366-1.3661l-10.3924-6a1,1,0,0,0-1.366.3661l-2,3.4641a1,1,0,0,0,.366,1.366l-1,1.732L19.5.1342A1,1,0,0,0,18.1338.5l-2,3.4641A1,1,0,0,0,16.5,5.33l18.1865,10.5-1,1.7321a1,1,0,0,0-1.366.366l-2,3.464a1,1,0,0,0,.366,1.3661l2.9664,1.7126L29.2,30.3994a1.0014,1.0014,0,0,0-.0483,1.1308l4.5786,7.3252L28.8457,43.74l1.1245-4.498a.998.998,0,0,0-.2178-.9l-6.4663-7.3907L28.8,23.6A1,1,0,0,0,28,22H21A13.0147,13.0147,0,0,0,8,35v2.8233a2.9991,2.9991,0,0,1-3.123-4.9464,1,1,0,1,0-1.4141-1.414A4.9793,4.9793,0,0,0,8,39.8875V45a13.017,13.017,0,0,0,8,11.9863V61a3.0033,3.0033,0,0,0,3,3H26.21a2.9968,2.9968,0,0,0,2.9814-2.669l.37-3.331h5.8775l.37,3.331A2.9968,2.9968,0,0,0,38.79,64H46a3.0033,3.0033,0,0,0,3-3V55.1562A19.0834,19.0834,0,0,0,55.1362,49H59a3.0033,3.0033,0,0,0,3-3V40A3.0033,3.0033,0,0,0,59,37ZM41.5524,5.9381l8.66,5-1,1.732-8.66-5Zm-1.134,3.9641,6.9282,4-5,8.66-6.9282-4ZM30.49,11.0984l-12.1244-7,1-1.7321,12.1244,7Zm1.732,1,1-1.7321,3.4641,2-1,1.7321Zm.33,9.4282,1-1.7321,8.66,5-1,1.7321ZM27.2036,61.11A1,1,0,0,1,26.21,62H25.0324a2.9775,2.9775,0,0,0,.161-.67L25.5645,58h1.9846ZM38.79,62a1,1,0,0,1-.9941-.89L37.45,58H39q.2205,0,.439-.0059l.3667,3.334A2.9824,2.9824,0,0,0,39.9673,62ZM60,46a1.001,1.001,0,0,1-1,1H54.57a1.0014,1.0014,0,0,0-.8657.499,17.0722,17.0722,0,0,1-6.2051,6.2256A1.0005,1.0005,0,0,0,47,54.59V61a1.001,1.001,0,0,1-1,1H42.79a.9981.9981,0,0,1-.9961-.89l-.47-4.27a1.0175,1.0175,0,0,0-1.0625-.8887C39.8438,55.9814,39.4268,56,39,56H24.67a1,1,0,0,0-.9936.89l-.4707,4.2217A.9975.9975,0,0,1,22.21,62H19a1.001,1.001,0,0,1-1-1V56.3a.9988.9988,0,0,0-.6665-.9424A11.0122,11.0122,0,0,1,10,45V35A11.0124,11.0124,0,0,1,21,24h5l-4.8,6.4a.9982.9982,0,0,0,.0474,1.2578l6.6552,7.6064L26.03,46.7578a1,1,0,0,0,1.6772.9492l8-8a1,1,0,0,0,.1411-1.2373l-4.6362-7.418,4.1859-5.573,5.6809,3.28a1,1,0,0,0,1.366-.3661l2-3.464A.9818.9818,0,0,0,44.4619,24H55.9292A6.9885,6.9885,0,0,1,49,30H44a1,1,0,0,0,0,2h5a8.9639,8.9639,0,0,0,3.8173-.8573,16.9227,16.9227,0,0,1,2.9376,7.03A16.4389,16.4389,0,0,1,56,41a1,1,0,0,0,2,0,18.43,18.43,0,0,0-.1223-2H59a1.0009,1.0009,0,0,1,1,1Z" fill="#ffffff" data-original="#000000" class=""/><path xmlns="http://www.w3.org/2000/svg" d="M52.1208,35.8789a1,1,0,0,0-1.414,0l-.707.707-.7071-.707a1,1,0,0,0-1.414,1.414l.707.7071-.707.707a1,1,0,1,0,1.414,1.4141L50,39.414l.707.7071a1,1,0,1,0,1.414-1.4141L51.4138,38l.707-.7071A1,1,0,0,0,52.1208,35.8789Z" fill="#ffffff" data-original="#000000" class=""/></g></svg>
