<svg xmlns="http://www.w3.org/2000/svg" xmlns:xlink="http://www.w3.org/1999/xlink" xmlns:svgjs="http://svgjs.com/svgjs" version="1.1" width="50" height="50" x="0" y="0" viewBox="0 0 511.101 511.101" style="enable-background:new 0 0 512 512" xml:space="preserve" class=""><g><path xmlns="http://www.w3.org/2000/svg" d="m507.953 369.565-88.696-86.645c-1.952-1.906-4.53-2.956-7.258-2.956h-10.481v-10.806h23.979c3.929 0 7.543-1.973 9.668-5.277s2.422-7.411.793-10.986l-4.524-9.928 4.524-9.929c1.628-3.575 1.332-7.682-.793-10.986s-5.74-5.276-9.668-5.276h-23.979v-12.806h23.979c3.929 0 7.543-1.973 9.668-5.277s2.422-7.411.793-10.986l-4.524-9.928 4.524-9.929c1.628-3.575 1.332-7.682-.793-10.986s-5.74-5.277-9.668-5.277h-24.837c-2.832-10.436-12.382-18.135-23.702-18.135h-91.828v-40.43c0-4.142-3.358-7.5-7.5-7.5s-7.5 3.358-7.5 7.5v186.941h-52.877v-36.186h6.892c4.142 0 7.5-3.358 7.5-7.5s-3.358-7.5-7.5-7.5h-6.892v-23.326h6.892c4.142 0 7.5-3.358 7.5-7.5s-3.358-7.5-7.5-7.5h-6.892v-23.326h6.892c4.142 0 7.5-3.358 7.5-7.5s-3.358-7.5-7.5-7.5h-6.892v-23.325h6.892c4.142 0 7.5-3.358 7.5-7.5s-3.358-7.5-7.5-7.5h-6.892v-23.326h6.892c4.142 0 7.5-3.358 7.5-7.5s-3.358-7.5-7.5-7.5h-6.892v-23.327h6.892c4.142 0 7.5-3.358 7.5-7.5s-3.358-7.5-7.5-7.5h-6.892v-22.147h52.877v46.029c0 4.142 3.358 7.5 7.5 7.5s7.5-3.358 7.5-7.5v-49.555c-.001-6.327-5.148-11.474-11.474-11.474h-59.931c-6.326 0-11.473 5.147-11.473 11.474v268.49h-13.598v-139.012c0-2.255-.672-4.432-1.941-6.293l-29.113-42.701c-2.083-3.056-5.534-4.879-9.231-4.879-3.698 0-7.149 1.824-9.231 4.878l-29.116 42.704c-1.269 1.863-1.94 4.039-1.94 6.292v139.012h-8.98c-2.728 0-5.306 1.05-7.259 2.958l-88.696 86.642c-3.035 2.965-3.961 7.42-2.36 11.35 1.601 3.929 5.377 6.468 9.62 6.468h80.019v100.979c0 12.538 10.2 22.737 22.737 22.737h283.776c12.537 0 22.737-10.2 22.737-22.737v-46.631c0-4.142-3.358-7.5-7.5-7.5s-7.5 3.358-7.5 7.5v46.631c0 4.267-3.471 7.737-7.737 7.737h-283.777c-4.266 0-7.737-3.471-7.737-7.737v-100.978h47.648c2.73 0 5.309-1.051 7.259-2.958l28.93-28.26c2.963-2.894 3.019-7.643.124-10.605-2.895-2.963-7.644-3.019-10.605-.125l-27.586 26.948h-129.467l79.253-77.42h129.468l-28.461 27.803c-2.963 2.894-3.019 7.643-.124 10.605 1.469 1.504 3.417 2.259 5.365 2.259 1.89 0 3.782-.71 5.24-2.135l39.445-38.533h152.762v114.775c0 4.142 3.358 7.5 7.5 7.5s7.5-3.358 7.5-7.5v-22.355h81.019c4.243 0 8.019-2.539 9.62-6.468 1.6-3.929.673-8.384-2.362-11.35zm-87.903-137.79-2.928 6.425c-1.38 3.029-1.38 6.504 0 9.533l2.927 6.425h-18.532v-22.383zm-2.927-49.23 2.927 6.425h-18.532v-22.383h18.532l-2.927 6.425c-1.381 3.029-1.381 6.504 0 9.533zm-131.994 1.677h66.923c1.349 0 2.447 1.097 2.447 2.446v23.603c0 1.349-1.098 2.447-2.447 2.447h-66.923zm-136.761-79.177 19.368 28.406h-38.736zm-25.286 43.407h18.106v131.512h-18.106zm33.106 131.512v-131.512h17.467v131.512zm128.941 0v-15.88h61.163c4.142 0 7.5-3.358 7.5-7.5s-3.358-7.5-7.5-7.5h-61.163v-21.366h66.923c9.62 0 17.447-7.827 17.447-17.447v-23.603c0-9.62-7.827-17.446-17.447-17.446h-66.923v-20.77h91.828c5.271 0 9.56 4.289 9.56 9.56v121.952zm134.546 92.42v-68.086l69.698 68.086z" fill="#ffffff" data-original="#000000" class=""/></g></svg>
