<svg height="512" viewBox="0 0 64 64" width="512" xmlns="http://www.w3.org/2000/svg"><g id="_10-Pencil_case" data-name="10-Pencil case"><path d="m50 64h-36a7.008 7.008 0 0 1 -7-7v-56a1 1 0 0 1 1-1h48a1 1 0 0 1 1 1v3h-2v-2h-46v55a5.006 5.006 0 0 0 5 5h36a5.006 5.006 0 0 0 5-5v-47h2v47a7.008 7.008 0 0 1 -7 7z"/><path d="m55 6h2v2h-2z"/><path d="m27 63h-2v-34h-12v34h-2v-35a1 1 0 0 1 1-1h14a1 1 0 0 1 1 1z"/><path d="m53 63h-2v-34h-25v-2h26a1 1 0 0 1 1 1z"/><path d="m30 28h-2v-18a1 1 0 0 1 1-1h20a1 1 0 0 1 1 1v15h-2v-14h-18z"/><path d="m34 13h10v2h-10z"/><path d="m36 16h6v2h-6z"/><path d="m17 28h-2v-3h-1v3h-2v-4a1 1 0 0 1 1-1h3a1 1 0 0 1 1 1z"/><path d="m16 25h-3a1 1 0 0 1 -1-1v-10a1 1 0 0 1 1-1h3a1 1 0 0 1 1 1v10a1 1 0 0 1 -1 1zm-2-2h1v-8h-1z"/><path d="m24 29h-5a1 1 0 0 1 -1-1v-6a1 1 0 0 1 1-1h5a1 1 0 0 1 1 1v6a1 1 0 0 1 -1 1zm-4-2h3v-4h-3z"/><path d="m23 23h-3a1 1 0 0 1 -1-1v-10a1 1 0 0 1 1-1h3a1 1 0 0 1 1 1v10a1 1 0 0 1 -1 1zm-2-2h1v-8h-1z"/><path d="m27 20h-2v-5a2 2 0 0 0 -2-2 1 1 0 0 1 -1-1v-2.5a.5.5 0 0 0 -1 0v2.5h-2v-2.5a2.5 2.5 0 0 1 5 0v1.626a4.008 4.008 0 0 1 3 3.874z"/><path d="m34.5 8h-5a2.5 2.5 0 0 1 0-5h5a2.5 2.5 0 0 1 0 5zm-5-3a.5.5 0 0 0 0 1h5a.5.5 0 0 0 0-1z"/></g></svg>