<svg id="Capa_1" enable-background="new 0 0 512 512" height="512" viewBox="0 0 512 512" width="512" xmlns="http://www.w3.org/2000/svg"><g><path d="m41.744 375.402h81.281v26.592c0 22.991 18.704 41.696 41.695 41.696h81.284v26.615c0 22.991 18.704 41.695 41.695 41.695h182.559c22.991 0 41.695-18.705 41.695-41.695v-292.009c0-22.991-18.704-41.695-41.695-41.695h-81.284v-26.615c0-22.991-18.704-41.695-41.695-41.695h-81.279v-26.594c0-22.992-18.705-41.697-41.697-41.697h-182.559c-22.992 0-41.697 18.705-41.697 41.697v100.565c0 5.523 4.478 10 10 10s10-4.477 10-10v-100.565c0-11.964 9.734-21.697 21.697-21.697h182.56c11.963 0 21.696 9.733 21.696 21.697v292.008c0 11.419-9.265 21.127-20.668 21.663l-183.589.034c-11.963 0-21.696-9.733-21.696-21.697v-103.444c0-5.523-4.478-10-10-10s-10 4.477-10 10v103.444c0 22.992 18.705 41.697 41.697 41.697zm428.514-218.801c11.963 0 21.695 9.732 21.695 21.695v292.008c0 11.963-9.732 21.695-21.695 21.695h-182.558c-11.963 0-21.695-9.732-21.695-21.695v-26.615l170.619-.009c5.522 0 10-4.477 10-10s-4.478-10-10-10h-53.645c3.809-6.306 5.996-13.72 5.996-21.687v-14.253h47.647c5.522 0 10-4.477 10-10s-4.478-10-10-10h-47.647v-46.303c15.157-.562 29.322-6.719 40.086-17.497 11.325-11.311 17.562-26.358 17.562-42.369 0-32.278-25.658-58.662-57.647-59.864v-45.106zm-81.284 65.112c20.959 1.183 37.647 18.608 37.647 39.858 0 10.664-4.153 20.686-11.703 28.227-6.995 7.003-16.136 11.084-25.944 11.631zm-41.695-133.422c11.963 0 21.695 9.732 21.695 21.695v292.008c0 11.616-9.724 21.485-21.329 21.687l-182.925.009c-11.963 0-21.695-9.733-21.695-21.696v-26.592l170.622-.031c5.522 0 10-4.477 10-10s-4.478-10-10-10h-53.683c3.833-6.316 6.04-13.731 6.04-21.667v-14.275h47.638c5.522 0 10-4.477 10-10s-4.478-10-10-10h-47.638v-46.247h47.638c5.522 0 10-4.477 10-10v-99.844c0-5.523-4.478-10-10-10h-47.638v-45.047zm-81.275 65.047h37.638v79.844h-37.638z"/><path d="m76.333 184.896h115.293c3.572 0 6.874-1.906 8.66-5s1.786-6.906 0-10l-57.646-99.846c-1.786-3.094-5.088-5-8.66-5s-6.874 1.906-8.66 5l-57.646 99.846c-1.786 3.094-1.786 6.906 0 10s5.087 5 8.659 5zm57.647-89.846 40.326 69.846h-80.652z"/><path d="m76.333 251.138h115.293c5.522 0 10-4.477 10-10s-4.478-10-10-10h-115.293c-5.522 0-10 4.477-10 10s4.478 10 10 10z"/><path d="m76.333 307.083h115.293c5.522 0 10-4.477 10-10s-4.478-10-10-10h-115.293c-5.522 0-10 4.477-10 10s4.478 10 10 10z"/><path d="m10.05 196.61c4.45 0 8.433-3.05 9.626-7.329 1.167-4.186-.603-8.796-4.283-11.112-7.522-4.733-17.322 2.396-14.999 11.034 1.162 4.321 5.178 7.407 9.656 7.407z"/></g></svg>