<svg xmlns="http://www.w3.org/2000/svg" xmlns:xlink="http://www.w3.org/1999/xlink" xmlns:svgjs="http://svgjs.com/svgjs" version="1.1" width="512" height="512" x="0" y="0" viewBox="0 0 340 340" style="enable-background:new 0 0 512 512" xml:space="preserve" class=""><g><path xmlns="http://www.w3.org/2000/svg" d="M310.967,199.824h-82.1a4,4,0,0,0,0,8h82.1a6.382,6.382,0,0,1,6.375,6.374v40.7a6.382,6.382,0,0,1-6.375,6.374H228.328a4,4,0,0,0,0,8h82.639A14.39,14.39,0,0,0,325.342,254.9V214.2A14.39,14.39,0,0,0,310.967,199.824Z" fill="#ffffff" data-original="#000000"/><path xmlns="http://www.w3.org/2000/svg" d="M212.375,222.529H158.449a4,4,0,0,0,0,8h53.926a7.353,7.353,0,1,1,0,14.705H158.449a4,4,0,0,0,0,8h43.658a7.353,7.353,0,1,1,0,14.705H158.449a4,4,0,0,0,0,8h43.658a15.347,15.347,0,0,0,13.305-23.007,15.353,15.353,0,0,0-3.037-30.4Z" fill="#ffffff" data-original="#000000"/><path xmlns="http://www.w3.org/2000/svg" d="M10,285.057H69.951a32.159,32.159,0,0,1,14.552,3.5l11.2,5.714a40.2,40.2,0,0,0,18.189,4.374h69.141a15.278,15.278,0,0,0,14.957-11.879,4,4,0,1,0-7.793-1.805,7.315,7.315,0,0,1-7.164,5.684H113.888a32.159,32.159,0,0,1-14.552-3.5l-11.2-5.715a40.2,40.2,0,0,0-18.189-4.373H14v-63.6H51.479a44.925,44.925,0,0,0,30.28-11.707l10.983-9.984a36.938,36.938,0,0,1,24.9-9.626h41.271c.934,4.388,1.358,13.282-8.77,17.68H134.2a4,4,0,0,0,0,8h66.461a7.326,7.326,0,0,1,7.248,6.106,4,4,0,1,0,7.887-1.342,15.306,15.306,0,0,0-15.135-12.764H163.091c5.858-7.713,4.691-17.64,2.55-23.133a4,4,0,0,0-3.727-2.547H117.642A44.927,44.927,0,0,0,87.36,185.85l-10.982,9.984a36.94,36.94,0,0,1-24.9,9.627H10a4,4,0,0,0-4,4v71.6A4,4,0,0,0,10,285.057Z" fill="#ffffff" data-original="#000000"/><path xmlns="http://www.w3.org/2000/svg" d="M330,82.923H206.107V49.356H256.6a5.629,5.629,0,0,1,5.622,5.622V71.694a4,4,0,1,0,8,0V54.978A13.638,13.638,0,0,0,256.6,41.356H58.569A13.637,13.637,0,0,0,44.948,54.978V77.3A13.637,13.637,0,0,0,58.569,90.923H83.3a4,4,0,0,0,0-8H58.569A5.628,5.628,0,0,1,52.948,77.3V54.978a5.628,5.628,0,0,1,5.621-5.622h50.488V82.923h-8.475a4,4,0,0,0-4,4V95.5A13.114,13.114,0,0,0,107.6,108.427v23.535a13.114,13.114,0,0,0-11.019,12.923v4.58h-21.9a13.633,13.633,0,0,0-13.618,13.618v26.9a4,4,0,1,0,8,0v-26.9a5.624,5.624,0,0,1,5.618-5.618h46.936v7.368a4,4,0,0,0,8,0v-7.368H182.03v31.3a4,4,0,0,0,8,0v-31.3h52.414v30.121a4,4,0,0,0,8,0V157.465h35.92a5.624,5.624,0,0,1,5.618,5.618v24.5a4,4,0,0,0,8,0v-24.5a13.633,13.633,0,0,0-13.618-13.618H104.582v-4.58a5.11,5.11,0,0,1,5.1-5.1H320.9a5.11,5.11,0,0,1,5.1,5.1v4.58H313.838a4,4,0,0,0,0,8H330a4,4,0,0,0,4-4v-8.58a13.115,13.115,0,0,0-11.02-12.923V108.427A13.115,13.115,0,0,0,334,95.5V86.923A4,4,0,0,0,330,82.923ZM117.057,49.356h81.05V82.923h-81.05ZM115.6,131.78V108.609H314.98v7.585H238.333a4,4,0,0,0,0,8H314.98v7.586ZM326,95.5a5.11,5.11,0,0,1-5.1,5.1H109.686a5.11,5.11,0,0,1-5.1-5.1V90.923H326Z" fill="#ffffff" data-original="#000000"/><path xmlns="http://www.w3.org/2000/svg" d="M283.4,246.907V222.192a4,4,0,0,0-8,0v24.715a4,4,0,0,0,8,0Z" fill="#ffffff" data-original="#000000"/><path xmlns="http://www.w3.org/2000/svg" d="M262.605,241.15v-13.2a4,4,0,0,0-8,0v13.2a4,4,0,1,0,8,0Z" fill="#ffffff" data-original="#000000"/><path xmlns="http://www.w3.org/2000/svg" d="M220.91,116.194h-2.138a4,4,0,0,0,0,8h2.138a4,4,0,0,0,0-8Z" fill="#ffffff" data-original="#000000"/><path xmlns="http://www.w3.org/2000/svg" d="M199.213,116.194h-73.6a4,4,0,0,0,0,8h73.6a4,4,0,0,0,0-8Z" fill="#ffffff" data-original="#000000"/></g></svg>
