<svg xmlns="http://www.w3.org/2000/svg" xmlns:xlink="http://www.w3.org/1999/xlink" xmlns:svgjs="http://svgjs.com/svgjs" version="1.1" width="512" height="512" x="0" y="0" viewBox="0 0 512 512" style="enable-background:new 0 0 512 512" xml:space="preserve" class=""><g><path xmlns="http://www.w3.org/2000/svg" d="m87.585938 104.101562c-4.144532 0-7.507813 3.359376-7.507813 7.507813v32.03125c0 4.148437 3.363281 7.507813 7.507813 7.507813h96.09375c4.144531 0 7.507812-3.359376 7.507812-7.507813v-32.03125c0-4.148437-3.363281-7.507813-7.507812-7.507813zm88.585937 32.03125h-81.078125v-17.015624h81.078125zm0 0" fill="#ffffff" data-original="#000000" class=""/><path xmlns="http://www.w3.org/2000/svg" d="m214.476562 295.1875c.410157.066406.820313.101562 1.234376.101562.695312 0 1.390624-.097656 2.0625-.289062l56.054687-16.015625c.445313-.128906.878906-.296875 1.296875-.503906l48.046875-24.023438c2.542969-1.273437 4.148437-3.871093 4.148437-6.714843 0-5.746094-2.320312-13.191407-8.007812-18.152344v-138.332032c0-4.148437-3.359375-7.507812-7.507812-7.507812-4.144532 0-7.507813 3.359375-7.507813 7.507812v132.972657c-.167969 0-.328125-.011719-.5-.011719-15.539063 0-35.667969 11.855469-42.253906 16.015625h-35.191407l-21.269531-17.015625h34.652344c4.144531 0 7.507813-3.359375 7.507813-7.507812v-16.015626c0-12.972656-10.554688-23.523437-23.523438-23.523437h-72.070312c-1.992188 0-3.902344.789063-5.308594 2.199219l-29.832032 29.832031h-13.40625v-.5c0-4.148437-3.363281-7.507813-7.507812-7.507813h-32.53125v-185.179687h89.085938v56.554687c0 5.035157 5.097656 8.714844 9.882812 7.121094l21.648438-7.214844 21.648437 7.214844c4.785156 1.59375 9.882813-2.085937 9.882813-7.121094v-56.554687h89.085937v40.207031c0 4.144532 3.359375 7.503906 7.507813 7.503906 4.148437 0 7.507812-3.359374 7.507812-7.503906v-47.714844c0-4.148437-3.359375-7.507812-7.507812-7.507812h-256.25c-4.144532 0-7.507813 3.359375-7.507813 7.507812v192.6875h-40.539063c-4.148437 0-7.507812 3.359376-7.507812 7.507813s3.359375 7.507813 7.507812 7.507813h80.578126v65.0625h-80.578126c-4.148437 0-7.507812 3.359374-7.507812 7.507812s3.359375 7.507812 7.507812 7.507812h88.085938c4.144531 0 7.507812-3.359374 7.507812-7.507812v-8.507812h15.890626zm-14.28125-280.171875v46.140625l-14.140624-4.714844c-1.53125-.511718-3.21875-.511718-4.75 0l-14.140626 4.714844v-46.140625zm-97.09375 208.203125h16.515626c1.972656 0 3.90625-.8125 5.308593-2.199219l29.832031-29.832031h68.960938c4.691406 0 8.507812 3.816406 8.507812 8.507812v8.507813h-48.546874c-3.09375 0-5.914063 1.976563-7.015626 4.851563-1.136718 2.972656-.191406 6.542968 2.324219 8.519531l40.039063 32.03125c1.332031 1.0625 2.988281 1.644531 4.691406 1.644531h40.039062c1.480469 0 2.929688-.4375 4.164063-1.261719 6.15625-4.105469 24.601563-14.753906 35.875-14.753906 4.429687 0 6.597656 2.023437 7.628906 4.308594l-42.394531 21.195312-53.753906 15.359375-94.425782-15.738281c-.074218-.011719-.144531-.015625-.214843-.023437-.136719-.019532-.269531-.035157-.402344-.046876-.132813-.011718-.265625-.015624-.394531-.019531-.074219-.003906-.148438-.011719-.222656-.011719h-16.515626zm0 0" fill="#ffffff" data-original="#000000" class=""/><path xmlns="http://www.w3.org/2000/svg" d="m503.992188 415.90625h-80.078126c-.085937 0-.167968.011719-.253906.011719-.132812.003906-.265625.011719-.398437.019531-.148438.015625-.292969.03125-.4375.050781-.078125.011719-.152344.015625-.226563.027344l-94.3125 15.71875-53.605468-15.316406-41.914063-20.957031c1.074219-2.03125 3.144531-3.578126 6.96875-3.578126 11.105469 0 29.464844 10.59375 35.597656 14.671876 1.3125.875 2.859375 1.34375 4.441407 1.34375h40.039062c1.121094 0 2.230469-.234376 3.253906-.691407l71.925782-31.964843c3.480468-1.492188 5.511718-5.332032 4.722656-9.046876-.785156-3.707031-4.210938-6.417968-8.003906-6.34375h-39.867188v-8.007812c0-4.414062 3.59375-8.007812 8.007812-8.007812h68.753907l29.683593 29.6875c1.492188 1.480468 3.5625 2.34375 5.664063 2.34375h40.039063c4.421874 0 8.007812-3.585938 8.007812-8.007813s-3.585938-8.007813-8.007812-8.007813h-36.722657l-29.683593-29.683593c-1.503907-1.503907-3.539063-2.347657-5.664063-2.347657h-72.070313c-13.246093 0-24.023437 10.777344-24.023437 24.023438v16.015625c0 4.421875 3.585937 8.007813 8.007813 8.007813h10.3125l-2.757813 1.226562h-21.210937c-6.746094-4.25-26.828126-16.015625-42.398438-16.015625-15.902344 0-22.664062 11.695313-23.832031 21.074219-7.738281-3.414063-16.527344-6.285156-24.214844-6.285156-17.625 0-24.023437 14.367187-24.023437 24.023437 0 3.035156 1.714843 5.804687 4.425781 7.164063l48.046875 24.023437c.441406.222656.90625.398437 1.382812.535156l56.054688 16.015625c.71875.207032 1.457031.308594 2.199218.308594.4375 0 .878907-.035156 1.316407-.105469l95.441406-15.910156h79.414063c4.421874 0 8.007812-3.585937 8.007812-8.007813 0-4.421874-3.585938-8.007812-8.007812-8.007812zm-223.0625-35.230469c.886718-1.773437 2.390624-3.582031 6.851562-3.582031 10.058594 0 26.066406 8.6875 33.554688 13.359375l-3.222657 1.429687h-17.007812c-.738281-1.046874-1.734375-1.933593-2.960938-2.546874l-17.238281-8.617188c.007812-.015625.015625-.03125.023438-.042969zm0 0" fill="#ffffff" data-original="#000000" class=""/></g></svg>
